<svg width="60" height="56" viewBox="0 0 60 56" fill="none" xmlns="http://www.w3.org/2000/svg">
<path d="M57.5952 7.72806C55.8405 4.58464 53.3235 2.37 50.316 1.32344C47.8699 0.471834 45.5251 0.0379092 43.3215 0.047048C39.7341 0.047048 36.4782 1.19346 33.6464 3.45346C32.2521 4.56196 30.9759 5.9091 29.7727 7.54596C28.5269 5.72327 27.2814 4.32165 25.9196 3.20197C23.349 1.07703 20.2219 0 16.6272 0C16.3408 0.0013539 16.0411 0.00507712 15.6998 0.0182776C11.2959 0.200716 7.27259 2.06165 4.37061 5.25719C1.55223 8.35661 0 12.4454 0 16.7694C0 18.3711 0.215467 19.9856 0.640073 21.569C2.06675 26.8763 5.03599 32.1541 9.71665 37.7048C11.6475 39.9942 16.3525 45.0761 20.7684 49.2058C21.205 49.6143 21.8847 49.5849 22.2867 49.1415C22.3016 49.1249 22.312 49.1056 22.326 49.088C23.8249 47.8438 28.1675 43.3569 29.114 42.3615C32.5581 38.7432 41.7326 28.1564 43.2639 26.1546C45.1138 23.7362 46.0539 21.4769 46.0589 19.4393C46.0679 17.9145 45.4848 16.4922 44.4598 15.5367C43.5106 14.6533 42.5548 14.2234 41.5375 14.2234C40.3835 14.2234 39.1513 14.7883 37.7706 15.952C37.716 15.9977 37.6387 16.0803 37.5568 16.1676C37.2911 16.4529 36.9897 16.7762 36.6547 16.7762C36.5934 16.7762 36.5341 16.765 36.4775 16.743C36.3503 16.6929 36.2131 16.6323 36.0695 16.5687C35.6106 16.3656 35.0901 16.1351 34.5939 16.1297L34.5649 16.1293C33.8543 16.1293 33.1582 16.4424 32.701 16.9674C32.2351 17.4917 31.9803 18.232 31.983 19.0528C31.9843 19.3709 32.0496 19.6739 32.1192 19.9947C32.2408 20.5586 32.3666 21.1411 32.1109 21.7795C31.8724 22.3756 30.902 23.9843 30.3891 24.4697C28.7816 25.9908 20.7434 33.0338 20.7434 33.0338L20.4697 32.6439C19.5862 31.6132 18.2591 30.016 16.9516 28.2586C15.9862 26.9619 15.1766 25.7722 14.5465 24.7232C13.8315 23.5416 13.317 22.4693 13.0982 21.7054C12.9413 21.1692 12.4485 20.7945 11.8996 20.7945C11.7787 20.7945 11.6585 20.8125 11.541 20.848C11.2203 20.9445 10.9562 21.1618 10.7966 21.4603C10.6371 21.7592 10.6018 22.1031 10.6971 22.4284C11.0408 23.5873 11.6898 24.9094 12.7398 26.5882C15.1303 30.3879 18.5864 34.3457 19.5888 35.4681L19.6251 35.5094L19.6235 35.507C19.8479 35.7578 20.157 35.9041 20.4933 35.9186L20.5466 35.9196C20.862 35.9196 21.163 35.7998 21.3951 35.5822L21.3825 35.6018C21.4381 35.5416 21.562 35.4248 21.8607 35.1442C22.8954 34.1711 32.5142 25.2049 33.2668 24.5025C33.8756 23.9346 34.115 23.5054 34.2522 22.7371C34.3801 22.0205 34.2056 21.5412 34.0038 20.9861C33.8802 20.647 33.7527 20.2963 33.6837 19.8786L33.6778 19.8458C33.6644 19.7619 33.6548 19.6803 33.6474 19.6004C33.5905 18.8987 33.798 18.5088 33.9818 18.3054C34.1856 18.0807 34.4624 17.9619 34.7827 17.9619C34.881 17.9619 34.9829 17.973 35.0835 17.9957L35.1594 18.0136C35.5873 18.1301 36.0153 18.435 36.3646 18.8727C36.4315 18.9559 36.4941 19.0423 36.5554 19.1265C36.7909 19.4501 36.9364 19.6502 37.1765 19.6502C37.2158 19.6502 37.2584 19.6434 37.3024 19.6336C37.5661 19.5747 37.9721 19.0771 38.2618 18.7177C38.4307 18.5085 38.5905 18.3105 38.7327 18.1771C39.4554 17.4998 40.541 16.5991 41.6154 16.5991C42.1129 16.5991 42.5542 16.7941 42.9282 17.1793C43.482 17.7594 43.9049 18.6828 43.9139 19.6319C43.9183 20.5275 43.4597 22.2439 41.4139 25.0874C38.1093 29.691 35.2167 32.3643 31.6406 36.2723C30.9626 37.0122 24.4377 44.3504 21.4531 46.8707C17.3372 42.9504 13.1331 38.4 11.3488 36.2832C6.87928 30.9833 4.05457 25.982 2.71382 20.9942C2.33916 19.5984 2.14934 18.1771 2.14934 16.7694C2.14934 12.9961 3.49875 9.43465 5.94948 6.73904C8.46315 3.97133 11.9569 2.35951 15.7844 2.2011C16.0674 2.19027 16.3458 2.18519 16.6226 2.18452C19.7144 2.18452 22.3862 3.09705 24.5655 4.89875C26.0602 6.12741 27.4162 7.76969 28.8329 10.0662C29.0267 10.3807 29.3648 10.5736 29.7297 10.5784C30.0941 10.578 30.4371 10.399 30.6389 10.0899C31.9817 8.03201 33.3987 6.42358 34.9722 5.17257C37.4179 3.22093 40.2267 2.23157 43.3241 2.23157H43.3551C45.3036 2.23157 47.4117 2.62115 49.6196 3.39016C52.782 4.49021 54.6853 6.94246 55.7253 8.80576C57.0937 11.2587 57.8487 14.2491 57.8507 17.2247C57.8503 19.5906 57.3718 21.8574 56.4676 23.7785C54.0475 28.9003 48.881 36.1468 42.6468 43.1633C36.1185 50.5106 31.7389 53.8155 30.7138 53.8155C30.4318 53.8155 29.2449 53.5965 25.822 50.7807C25.3605 50.4013 24.6838 50.4737 24.3104 50.9425C23.9371 51.4113 24.0084 52.0994 24.4696 52.4788C28.3064 55.6348 29.871 56 30.7138 56C31.4738 56 32.8908 55.6436 36.4102 52.5638C38.7051 50.555 41.4132 47.8106 44.2416 44.6276C50.6064 37.4641 55.9011 30.0237 58.4055 24.7229C59.4482 22.5076 59.9997 19.9149 60 17.224C59.9977 13.8765 59.1431 10.5042 57.5952 7.72806Z" fill="#CBCBCB"/>
</svg>
